<svg width="24" height="24" viewBox="0 0 24 24" fill="none" xmlns="http://www.w3.org/2000/svg">
    <path fill-rule="evenodd" clip-rule="evenodd"
        d="M4.07675 6.53123C4.23299 6.01907 4.70925 5.64648 5.27254 5.64648H19.2725C19.8358 5.64648 20.3121 6.01907 20.4683 6.53123L12.2725 11.9951L4.07675 6.53123ZM2.52257 6.88275C2.52244 6.89075 2.52242 6.89875 2.52254 6.90674V16.8965C2.52254 18.4153 3.75376 19.6465 5.27254 19.6465H19.2725C20.7913 19.6465 22.0225 18.4153 22.0225 16.8965V6.90671M20.5225 8.29787V16.8965C20.5225 17.5868 19.9629 18.1465 19.2725 18.1465H5.27254C4.58218 18.1465 4.02254 17.5868 4.02254 16.8965V8.29787L11.8565 13.5205C12.1084 13.6885 12.4366 13.6885 12.6886 13.5205L20.5225 8.29787ZM22.0225 6.88278C22.0151 5.3703 20.7868 4.14648 19.2725 4.14648H5.27254C3.75834 4.14648 2.52997 5.37028 2.52257 6.88275"
        fill="#141718" />
</svg>
    