<svg width="89" height="16" viewBox="0 0 89 16" fill="none" xmlns="http://www.w3.org/2000/svg">
    <path
        d="M80.4197 1.10997C80.5905 0.699319 81.1722 0.699318 81.343 1.10996L82.8801 4.80556C82.9521 4.97868 83.1149 5.09696 83.3018 5.11194L87.2915 5.4318C87.7348 5.46734 87.9146 6.02059 87.5768 6.30993L84.5371 8.91378C84.3947 9.03576 84.3325 9.22715 84.376 9.40952L85.3047 13.3028C85.4079 13.7354 84.9373 14.0773 84.5577 13.8455L81.142 11.7592C80.982 11.6615 80.7807 11.6615 80.6207 11.7592L77.205 13.8455C76.8254 14.0773 76.3548 13.7354 76.458 13.3028L77.3867 9.40952C77.4302 9.22715 77.368 9.03576 77.2256 8.91378L74.1859 6.30993C73.8481 6.02059 74.0279 5.46734 74.4712 5.4318L78.4609 5.11194C78.6478 5.09696 78.8106 4.97868 78.8826 4.80556L80.4197 1.10997Z"
        fill="#343839" />
    <path
        d="M62.4197 1.10997C62.5905 0.699319 63.1722 0.699318 63.343 1.10996L64.8801 4.80556C64.9521 4.97868 65.1149 5.09696 65.3018 5.11194L69.2915 5.4318C69.7348 5.46734 69.9146 6.02059 69.5768 6.30993L66.5371 8.91378C66.3947 9.03576 66.3325 9.22715 66.376 9.40952L67.3047 13.3028C67.4079 13.7354 66.9373 14.0773 66.5577 13.8455L63.142 11.7592C62.982 11.6615 62.7807 11.6615 62.6207 11.7592L59.205 13.8455C58.8254 14.0773 58.3548 13.7354 58.458 13.3028L59.3867 9.40952C59.4302 9.22715 59.368 9.03576 59.2256 8.91378L56.1859 6.30993C55.8481 6.02059 56.0279 5.46734 56.4712 5.4318L60.4609 5.11194C60.6478 5.09696 60.8106 4.97868 60.8826 4.80556L62.4197 1.10997Z"
        fill="#343839" />
    <path
        d="M44.4197 1.10997C44.5905 0.699319 45.1722 0.699318 45.343 1.10996L46.8801 4.80556C46.9521 4.97868 47.1149 5.09696 47.3018 5.11194L51.2915 5.4318C51.7348 5.46734 51.9146 6.02059 51.5768 6.30993L48.5371 8.91378C48.3947 9.03576 48.3325 9.22715 48.376 9.40952L49.3047 13.3028C49.4079 13.7354 48.9373 14.0773 48.5577 13.8455L45.142 11.7592C44.982 11.6615 44.7807 11.6615 44.6207 11.7592L41.205 13.8455C40.8254 14.0773 40.3548 13.7354 40.458 13.3028L41.3867 9.40952C41.4302 9.22715 41.368 9.03576 41.2256 8.91378L38.1859 6.30993C37.8481 6.02059 38.0279 5.46734 38.4712 5.4318L42.4609 5.11194C42.6478 5.09696 42.8106 4.97868 42.8826 4.80556L44.4197 1.10997Z"
        fill="#343839" />
    <path
        d="M26.4197 1.10997C26.5905 0.699319 27.1722 0.699318 27.343 1.10996L28.8801 4.80556C28.9521 4.97868 29.1149 5.09696 29.3018 5.11194L33.2915 5.4318C33.7348 5.46734 33.9146 6.02059 33.5768 6.30993L30.5371 8.91378C30.3947 9.03576 30.3325 9.22715 30.376 9.40952L31.3047 13.3028C31.4079 13.7354 30.9373 14.0773 30.5577 13.8455L27.142 11.7592C26.982 11.6615 26.7807 11.6615 26.6207 11.7592L23.205 13.8455C22.8254 14.0773 22.3548 13.7354 22.458 13.3028L23.3867 9.40952C23.4302 9.22715 23.368 9.03576 23.2256 8.91378L20.1859 6.30993C19.8481 6.02059 20.0279 5.46734 20.4712 5.4318L24.4609 5.11194C24.6478 5.09696 24.8106 4.97868 24.8826 4.80556L26.4197 1.10997Z"
        fill="#343839" />
    <path
        d="M8.41969 1.10997C8.59048 0.699319 9.17221 0.699318 9.34301 1.10996L10.8801 4.80556C10.9521 4.97868 11.1149 5.09696 11.3018 5.11194L15.2915 5.4318C15.7348 5.46734 15.9146 6.02059 15.5768 6.30993L12.5371 8.91378C12.3947 9.03576 12.3325 9.22715 12.376 9.40952L13.3047 13.3028C13.4079 13.7354 12.9373 14.0773 12.5577 13.8455L9.14198 11.7592C8.98197 11.6615 8.78073 11.6615 8.62072 11.7592L5.20498 13.8455C4.82543 14.0773 4.3548 13.7354 4.458 13.3028L5.38668 9.40952C5.43019 9.22715 5.368 9.03576 5.22561 8.91378L2.18587 6.30993C1.84811 6.02059 2.02787 5.46734 2.47119 5.4318L6.4609 5.11194C6.64779 5.09696 6.8106 4.97868 6.8826 4.80556L8.41969 1.10997Z"
        fill="#343839" />
</svg>
    